<?xml version="1.0" encoding="UTF-8"?>
<svg id="Layer_1" xmlns="http://www.w3.org/2000/svg" version="1.1" viewBox="0 0 512 512">
  <!-- Generator: Adobe Illustrator 29.8.2, SVG Export Plug-In . SVG Version: 2.1.1 Build 3)  -->
  <defs>
    <style>
      .st0 {
        fill: #fd8d6c;
      }

      .st1 {
        fill: #fffeff;
        stroke: #fffeff;
      }

      .st1, .st2, .st3, .st4, .st5, .st6, .st7, .st8, .st9, .st10, .st11, .st12, .st13, .st14, .st15, .st16, .st17, .st18, .st19, .st20, .st21, .st22, .st23, .st24, .st25, .st26, .st27, .st28, .st29, .st30, .st31, .st32, .st33, .st34, .st35, .st36, .st37, .st38, .st39, .st40, .st41, .st42, .st43, .st44, .st45, .st46, .st47, .st48, .st49 {
        stroke-width: .25px;
      }

      .st2 {
        fill: #fffdff;
        stroke: #fffdff;
      }

      .st3 {
        fill: #879ab5;
        stroke: #879ab5;
      }

      .st4 {
        fill: #03000c;
        stroke: #03000c;
      }

      .st5 {
        fill: #5f5c63;
        stroke: #5f5c63;
      }

      .st6 {
        fill: #f5e3d9;
        stroke: #f5e3d9;
      }

      .st7 {
        fill: #b4634f;
        stroke: #b4634f;
      }

      .st8 {
        fill: #f5e2d8;
        stroke: #f5e2d8;
      }

      .st9 {
        fill: #fefdfd;
        stroke: #fefdfd;
      }

      .st10 {
        fill: #b76755;
        stroke: #b76755;
      }

      .st11 {
        fill: #1c0324;
        stroke: #1c0324;
      }

      .st12 {
        fill: #fff;
        stroke: #fff;
      }

      .st13 {
        fill: #2b0a13;
        stroke: #2b0a13;
      }

      .st14 {
        fill: #bfccdb;
        stroke: #bfccdb;
      }

      .st15 {
        fill: #de955f;
        stroke: #de955f;
      }

      .st16 {
        fill: #140125;
        stroke: #140125;
      }

      .st17 {
        fill: #f5e3d6;
        stroke: #f5e3d6;
      }

      .st18 {
        fill: #fefdfc;
        stroke: #fefdfc;
      }

      .st19 {
        fill: #b1604e;
        stroke: #b1604e;
      }

      .st20 {
        fill: #df9661;
        stroke: #df9661;
      }

      .st21 {
        fill: #fffefe;
        stroke: #fffefe;
      }

      .st22 {
        fill: #b46250;
        stroke: #b46250;
      }

      .st23 {
        fill: #b0665a;
        stroke: #b0665a;
      }

      .st24 {
        fill: #fbf1ef;
        stroke: #fbf1ef;
      }

      .st25 {
        fill: #b5614f;
        stroke: #b5614f;
      }

      .st26 {
        fill: #b2c0d3;
        stroke: #b2c0d3;
      }

      .st27 {
        fill: #fffcff;
        stroke: #fffcff;
      }

      .st28 {
        fill: #b26055;
        stroke: #b26055;
      }

      .st29 {
        fill: #db9376;
        stroke: #db9376;
      }

      .st30 {
        fill: #ab635d;
        stroke: #ab635d;
      }

      .st31 {
        fill: #fefefe;
        stroke: #fefefe;
      }

      .st32 {
        fill: #758dab;
        stroke: #758dab;
      }

      .st33 {
        fill: #150026;
        stroke: #150026;
      }

      .st34 {
        fill: #f7e3d7;
        stroke: #f7e3d7;
      }

      .st35 {
        fill: #e09660;
        stroke: #e09660;
      }

      .st36 {
        fill: #b3614f;
        stroke: #b3614f;
      }

      .st37 {
        fill: #f7e7db;
        stroke: #f7e7db;
      }

      .st38 {
        fill: #fabb96;
        stroke: #fabb96;
      }

      .st39 {
        fill: #d8dceb;
        stroke: #d8dceb;
      }

      .st40 {
        fill: #a4b6c6;
        stroke: #a4b6c6;
      }

      .st41 {
        fill: #99acc3;
        stroke: #99acc3;
      }

      .st42 {
        fill: #19011d;
        stroke: #19011d;
      }

      .st43 {
        fill: #df9660;
        stroke: #df9660;
      }

      .st44 {
        fill: #8199b4;
        stroke: #8199b4;
      }

      .st45 {
        fill: #d2d8e6;
        stroke: #d2d8e6;
      }

      .st46 {
        fill: #b36250;
        stroke: #b36250;
      }

      .st47 {
        fill: #fffdfd;
        stroke: #fffdfd;
      }

      .st48 {
        fill: #b16352;
        stroke: #b16352;
      }

      .st49 {
        fill: #b16051;
        stroke: #b16051;
      }
    </style>
  </defs>
  <path class="st31" d="M194.34,504.51c-.81-.2-1.62-.39-2.42-.59,1.19,1.74,2.41,3.46,3.69,5.14-.43-1.51-.85-3.03-1.27-4.54Z"/>
  <path class="st37" d="M321.11,506.69c.74-1.21,1.47-2.43,2.19-3.65-.63.17-1.25.34-1.88.51-.13,1.04-.24,2.09-.31,3.14Z"/>
  <path class="st0" d="M25.49,342.58c6.16-12.08,12.55-24.05,19.44-35.77-5.64-.13-11.31-.82-16.39-3.43,8.5-8.18,17.02-16.57,23.37-26.61,8.69-13.54,19.25-25.73,29.63-37.98-.88-7.47-1.67-14.98-2.36-22.47-3.54-2.12-7.85-3.48-10.45-6.85-1.8-8.03-1.03-16.42-1.8-24.57-1.05-7.19.43-15.54,8.69-17.21-15.49-31.03-9.21-73.56,19.46-94.78,13.75-9.96,33.56-8.97,47.08.94,6.44,4.27,11.24,11.57,19.38,12.75,6.16.99,11.35-3.18,16.74-5.39,24.38-10.99,53.28-10.96,78.06-1.22,22.49-8.45,47.98-9.7,70.75-1.57,7.83,2.73,14.7,9.31,23.47,8.26,9.66-2.1,15.17-11.12,23.65-15.41,14.51-8.24,33.97-6.8,46.43,4.59,25.23,21.69,30.02,60.38,16.8,89.89-2.64,3.63,2.73,4.4,4.42,6.29,1.39,2.66,1.93,5.51,1.61,8.56-.17,9.76-1.16,19.48-1.91,29.23-3.76,2.45-7.72,4.61-11.22,7.45-1.14,5.97-1.2,12.04-1.59,18.09,13.2,14.25,25.36,29.46,36.18,45.62,5.71,8.48,13.17,15.51,20.36,22.66-5.06,2.62-10.88,2.64-16.42,3.11,6.24,12.12,13.99,23.47,19.1,36.18-2.98-.34-5.92-.67-8.88-.99,4.15,4.82,8.13,9.88,12.35,14.71,13.23-30.9,20.57-64.93,20.57-100.67C512,114.62,397.38,0,256,0S0,114.62,0,256c0,36.33,7.58,70.88,21.23,102.19,4.67-5.28,9.02-10.91,13.72-16.08-3.15.15-6.31.3-9.46.47Z"/>
  <path class="st33" d="M46.33,367.58c6.8,1.31,13.65,2.57,20.6,2.96-7.87,9.18-15.83,18.39-24,27.38,2.81,4.22,5.75,8.34,8.8,12.38,6.85-10.36,14.54-20.19,22.84-29.41,2.3-3.84,6.59-.86,9.72-.21-1.18,7.85-11.59,13.28-8.75,21.74,6.57-9.06,18.3-18.17,30.06-13.45-6.14,13.82-14.29,27.04-16.26,42.34,9.85-10.88,19.7-23.95,35.1-26.67-1.2,1.76-2.32,3.63-3.88,5.11-.77,11.39-6.63,21.65-9.29,32.66-1.66,7.09-3.41,14.21-4.82,21.39,3.75,2.7,7.56,5.31,11.45,7.81,3.63-3.93,7.8-7.26,12.89-9.42-1.3,4.94-2.76,9.85-4.16,14.77,6.78,3.98,13.75,7.65,20.91,11,.34-.89.67-1.78,1.01-2.66.44,1.15.71,2.35.9,3.55,3.93,1.8,7.92,3.51,11.96,5.12.04-.59.09-1.19.13-1.78,1.01,1.01,2.04,2.01,3.05,3.01,8.89,3.4,18,6.33,27.33,8.74-12.97-18.92-20.88-41.3-22.98-64.15-4.83,8.52-5.26,18.52-7.3,27.87-5.06-16.2-9.31-33.22-7.42-50.32-1.22.34-3.67,1.05-4.89,1.39.43-3.6.84-7.21,1.22-10.81-4.48.58-8.11,3.18-11.65,5.75,1.89-10.41,6.31-20.21,11.39-29.42,9.48.41,17.92-4.08,25.79-8.78-.34-.11-1.01-.34-1.35-.47-13.22,4.01-27.14.26-40.38-2.04.19-1.14.6-3.45.79-4.61-9.03.28-17.92-1.44-26.74-3.11,1.8-2.17,3.6-4.33,5.43-6.5-8.56-1.5-16.44-5.21-24.38-8.56,2.88-3.09,5.9-6.2,7.6-10.13-5.99,3.56-12.17,6.8-18.58,9.55,1.61-5.47,7-8.6,10.09-13.2-3.48-.32-9.72,1.78-10.06-3.78,1.29-.71,3.86-2.15,5.15-2.85-4.03-.82-7.79.9-11.48,2.32,2.34-5.11,4.12-10.51,7.1-15.28,3.39-3.05,7.55-5.06,11.35-7.53-6.65-1.27-13.11,3.93-19.33,5.75-.54-.84-1.59-2.47-2.1-3.3-1.14,2.83-2.96,5.77-6.07,6.74-5.69,2.12-10.43,6.48-16.52,7.45,6.44-9.72,10.73-21.33,20.21-28.65,3.99-4.89,7.47-10.19,11.33-15.19-2.1.26-6.35.75-8.48,1.01,4.89-7,11.29-12.72,17.36-18.67-2.23.24-6.72.69-8.95.9,2.17-3.67,5.36-6.57,8.6-9.29,2.51,5.3,5.45,10.36,8.75,15.17,14.36,20.64,44.16,27.62,66.8,17.53,1.16,4.85,2.77,9.63,3.07,14.66-4.68.73-10.06-.6-14.2,2.12-10.41,0-19.46,5.56-29.53,7.3-.58.39-1.76,1.18-2.36,1.57-5.06.94-9.85,2.96-14.7,4.63l-1.46,2.08c11.14-3.07,22.14-7.4,33.69-8.69l.45-1.95c3.8.02,7.79.24,11.2-1.76,6.87-.32,13.39-2.62,20.19-3.28,4.96,8.56,12.08,15.69,19.96,21.59,5.71,3.86,13.75.41,19.03,5.21,2.21,1.7,4.94,3.45,7.85,2.08,12.42-3.71,24.12-10.17,36.8-12.75,1.55,7.87.36,17.42,4.72,24.18,1.7-8.35,3.11-16.74,4.29-25.17,10.34,4.06,20.53,8.58,31.07,12.15,3.43.84,7.57,3.5,10.79.49,4.96-4.23,11.39-4.36,17.6-3.99,4.68-2.83,8.69-6.57,12.55-10.41l1.42-.06c3.98-4.27,5.85-14.75,12.87-12.71-2.4-1.11-3.11-3.87-3.5-6.37-.06,0-.13,0-.19.01-1.7,1.35-3.38,2.73-4.92,4.26-7.55,10.47-20.96,15.13-33.52,14.08-15.73-1.52-32.14-5.19-44.22-16.05-.51-4.23-.92-8.48-.06-12.66,11.72-3.18,21.24-11.61,29.57-20.11,5.3-6.01,11.48-13.39,9.38-22.02-5.77-9.29-16.46-14.61-26.99-16.16-10-.32-20,.47-30-.21-13.17.32-29.78,6.07-32.81,20.6,6.5,18.63,23.88,32.55,42.59,37.81-.39,4.63,1.16,10.54-2.9,13.99-11.05,10.15-26.48,13.6-41.01,14.83-11.97,1.2-24.46-2.34-33.28-10.71-.3-1.18-.9-3.54-1.2-4.72,8.48-.15,16.69-2.4,25.06-3.39-.02-.41-.09-1.2-.11-1.61-9.31,1.7-18.84,1.93-28.02,4.29-1.87-3.43-3.18-7.1-4.38-10.79,11.16-.36,22.34.45,33.47-.32-11.03-3.58-22.96-1.44-34.35-2.49,5.3-5.56,12.12-9.53,17.04-15.58,15.51-17.79,29.14-37.14,42.77-56.39,6.07-8.22,8.9-18.39,15.54-26.24,8.39-3.09,18.41-4.53,26.39.45,3.91,2.1,5.06,6.63,6.91,10.34,5.82,13.75,15.11,25.62,23.8,37.66,13.84,17.17,24.85,38.3,45.4,48.49-9.27,4.29-21.26-1.12-30.11,3.95,10.17.36,20.34-.34,30.51.02l-.94,2.75c-.04,1.5-.13,4.46-.15,5.97.2,0,.36-.02.54-.03.06-.04.11-.09.17-.14,0,.04.01.08.02.12,4.17-.52,2.1-6.34,3.13-9.29,3.37-1.46,6.74.21,9.89,1.37,21.44,4.96,45.45-4.01,57.7-22.44,3.48-4.81,5.17-10.92,8.71-15.45,5.34.39,8,7.79,12.04,11.12-1.72.17-5.13.51-6.84.67,4.63,5.45,11.59,10.49,13.78,17.17-1.57-.04-4.7-.17-6.27-.24,2.79,4.03,5.73,7.96,8.37,12.08,10.49,7.83,16.93,20.3,22.4,31.95-8.8-4.06-17.6-8.15-26.16-12.64-5.54-1.8-10.94-3.91-16.35-6.01-.04.41-.13,1.22-.17,1.63,8.95,4.46,13.8,13.13,16.91,22.21-4.94-.34-8.82-4.1-13.75-4.66,3.28,1.89,6.8,3.76,6.87,8.11-2.85.6-5.73,1.07-8.6,1.44,3.18,4.16,6.65,8.09,9.96,12.19-6.78-.99-11.84-6.44-18.67-7.32,1.01,1.2,3.03,3.6,4.03,4.81,1.82.99,2.83,2.75,1.57,4.72-7.17,3.67-15.17,5.34-22.21,9.31,2.34,1.16,4.31,2.75,5.34,5.24-8.58,1.95-17.36,3.09-26.16,2.64v4.63c-14.25,3.18-29.33,5.71-43.69,1.67,8.6,5.32,17.92,9.81,28.28,9.74,4.74,9.48,8.88,19.35,11.24,29.74-4.66-1.91-8.71-4.96-12.79-7.81,1.67,21.01-2.73,41.93-9.36,61.73-1.63-9.44-2.64-19.08-6.74-27.92-1.82,3.2-1.14,7.06-1.82,10.56-2.79,18.96-11.66,36.18-21.37,52.46,14.3-3.89,28.1-8.98,41.29-15.17.02-.82.06-1.63.07-2.45.78.38,1.36.92,1.83,1.56,7.24-3.47,14.28-7.27,21.13-11.38-1.28-4.43-2.4-8.88-2.49-13.54,3.84,2.48,7.22,5.42,10.25,8.68,4.28-2.78,8.47-5.69,12.57-8.72-3.86-14.56-7.32-29.32-12.54-43.5-.77-5.04-2.88-9.66-5.66-13.86,15.3,2.83,25.64,15.73,35.25,26.89-1.48-13.39-7.75-25.56-13.93-37.34-.75-1.95-2.66-3.78-1.89-6.01,4.53-.58,9.68-2.04,13.78.84,5.71,3.6,11.99,7.19,15.71,13.02.21-.94.67-2.81.9-3.76-3.33-5.99-7.23-11.67-9.81-18.02,1.72-.47,5.15-1.42,6.89-1.89,9.25,9.21,17.53,19.46,24.75,30.4,2.98-4,5.83-8.09,8.57-12.26-2.81-3.26-5.6-6.54-8.54-9.67-4.53-5.6-10.24-10.17-14.2-16.22,7.04-.21,13.93-1.59,20.77-3.18,3.13,6.1,5.94,12.39,8.37,18.83,5.63-9.5,10.67-19.39,15.05-29.63-4.22-4.83-8.2-9.89-12.35-14.71,2.96.32,5.9.64,8.88.99-5.11-12.7-12.85-24.05-19.1-36.18,5.54-.47,11.35-.49,16.42-3.11-7.19-7.15-14.66-14.18-20.36-22.66-10.81-16.16-22.98-31.37-36.18-45.62.39-6.05.45-12.12,1.59-18.09,3.5-2.83,7.47-5,11.22-7.45.75-9.74,1.74-19.46,1.91-29.23.32-3.05-.21-5.9-1.61-8.56-1.7-1.89-7.06-2.66-4.42-6.29,13.22-29.5,8.43-68.19-16.8-89.89-12.47-11.39-31.93-12.83-46.43-4.59-8.48,4.29-13.99,13.3-23.65,15.41-8.78,1.05-15.64-5.54-23.47-8.26-22.77-8.13-48.26-6.89-70.75,1.57-24.78-9.74-53.69-9.76-78.06,1.22-5.39,2.21-10.58,6.37-16.74,5.39-8.13-1.18-12.94-8.48-19.38-12.75-13.52-9.91-33.32-10.9-47.08-.94-28.67,21.22-34.95,63.75-19.46,94.78-8.26,1.67-9.74,10.02-8.69,17.21.77,8.15,0,16.54,1.8,24.57,2.6,3.37,6.91,4.72,10.45,6.85.69,7.49,1.48,15,2.36,22.47-10.39,12.25-20.94,24.44-29.63,37.98-6.35,10.04-14.87,18.43-23.37,26.61,5.09,2.62,10.75,3.3,16.39,3.43-6.89,11.72-13.28,23.69-19.44,35.77,3.15-.17,6.31-.32,9.46-.47-4.7,5.17-9.06,10.8-13.72,16.08,4.55,10.45,9.77,20.54,15.62,30.2,2.62-7.17,5.89-14.12,9.47-20.81ZM269.44,276.69c.13-4.16,3.54-6.42,7.06-7.77-.26,4.25-2.9,7.04-7.06,7.77ZM236.18,272.99c-.13-.88-.39-2.62-.52-3.5,4.29.11,7.04,3.15,7.27,7.38-2.3-1.22-4.55-2.53-6.76-3.88ZM244.68,267.18c-5.04-6.27-12.49-11.14-20.84-10.32-1.29,1.8-2.55,3.6-3.84,5.41-5.54-5.36-7.79-16.57,1.14-19.76,12.04-3.86,23.32,3.18,34.91,4.96,11.07-2.53,22.66-8.93,34.1-4.74,8.13,4.01,6.44,14.63.34,19.66.04-.99.13-2.96.17-3.95-6.91-3.48-14.81.51-19.87,5.43-5.13,4.48-7.3,11.2-11.82,16.16-.45-1.91-1.31-5.69-1.74-7.57-3.26.71-2.88,4.55-4.01,6.97-3.95-3.22-5.3-8.43-8.54-12.23ZM212.43,220.47c-8.75,13.24-18.26,25.99-28.07,38.45-10.41,14.08-26.22,25.68-44.35,25.68-13.82.6-26.84-6.72-35.64-16.95-12.87-17.06-15.62-39.89-11.39-60.42,1.85-7.6,5.94-14.29,10.81-20.3,21.14-18.97,52.25-22.23,79.33-18.65-18.8,14.4-35.28,31.59-50.28,49.82-2.9,4.4-6.5,8.26-9.72,12.42-4.53,6.18-8.84,12.51-13.58,18.54-.92,4.1-4.06,7.3-6.87,10.28,6.67,12.94,20.9,21.29,35.28,22.14,13.2.43,25.73-5.69,35.41-14.31,7.72-8.22,14.63-17.21,21.09-26.46,6.97-9.63,15.34-18.63,19.68-29.87,2.92-6.95,2.15-14.63,2.27-21.97,3.99,10.41,2.3,22.42-3.97,31.59ZM86.73,171.52c25.3-8.88,52.34-12.19,79.07-13.2-26.52,2.98-53.28,6.16-79.07,13.2ZM417.57,233.81c-1.65,19.25-12.17,39.2-30.71,46.86-13.78,6.37-30.23,4.08-43.07-3.41-13.11-8.24-21.95-21.2-31.16-33.26-7.27-11.8-17.04-22.12-21.69-35.38-4.18-15.92,6.42-32.72,21.8-37.49,15.58-5.06,32.19-4.98,48.32-3.56-11.61,10.88-23.15,21.82-33.86,33.62-3.07,4.59-6.91,8.65-10.36,12.94-3.54,4.14-5.99,9.53-10.84,12.3-.17,5.3,4.16,9.03,6.93,13.11,11.35,14.66,21.99,31.67,40.02,38.82,8.07-6.54,14.63-14.68,21.18-22.68,11.63-15.51,22.38-31.99,28.97-50.34,1.35-2.98,1.65-6.72,4.44-8.84.21-3.05.32-6.12.04-9.16.73,2.12,1.5,4.23,2.3,6.35,8.15,11.54,8.65,26.52,7.68,40.13ZM346.52,158.28c25.86,1.16,52.12,4.1,76.54,13.13-24.96-7.08-50.94-9.72-76.54-13.13ZM403,76.98c12.85,4.42,21.5,16.24,26.67,28.28,8.22,19.18,6.18,41.35-2.4,60.04-3.56-.32-7.06-1.07-10.34-2.49-2.55-.49-5.13-.97-7.66-1.39,1.24-9.23,1.76-24.91-11.14-25.17.17-.9.49-2.7.67-3.58,2.47-1.31,4.91-2.7,7.53-3.73,4.83-.92,7.66,3.76,10.79,6.48-.99-5.39-3.09-10.81-7-14.76-2.68-1.52-5.71-2.36-8.24-4.14,6.74-3.91,14.18,1.01,16.31,7.72.73-6.42-4.08-10.84-7.36-15.66-7.32-5-16.52-2.7-22.9,2.62,1.91-5.75,5.3-12.51,12.02-13.39,6.44-1.87,12.27,2.25,16.22,6.91.79-.24,2.38-.73,3.18-.97-.71-.47-2.15-1.42-2.85-1.91-3.69-5.92-8.95-12.79-16.61-12.75-5.6-.92-10.43,2.96-13.9,6.87-5.75,7.49-9.33,16.82-9.36,26.33-5.94-5.13-10.32-12.08-13.99-18.95.06-19.14,23.11-31.5,40.36-26.35ZM190.59,89.57c9.42-4.61,19.96-5.62,30.3-4.59,11.84.39,22.72,7.6,29.33,17.19,3.63,6.65,5.3,14.14,7.36,21.39l.75-2.47c-.69-10.3,3.28-21.24,11.93-27.29,10.84-9.16,26.14-10.9,39.7-8.6,31.33,10.06,56.71,33.82,74.35,61.03,2.3,3.07,3.86,6.59,4.79,10.3-7.47-.75-14.89-1.97-22.32-2.94.09-2.7.19-5.39.28-8.07-6.97-.19-14.27-1.5-20.88,1.48-5.58,1.54-9.16,6.76-14.72,8.22-7.55.71-15.15.97-22.72,1.37l-.43.94,1.22,2.57c-18.37,2.92-37.04,3.93-55.58,2.92-11.54-.51-23.35,1.14-34.72-1.12-.58-.77-1.74-2.34-2.32-3.11-4.18-.54-8.35-.94-12.55-1.29-10.26-2.68-22.44,1.2-30.98-6.46-8.18-5.6-18.67-7.9-28.2-4.51-.36,2.34-.09,4.7.09,7.06-7.45,1.05-14.83,2.62-22.36,2.85,14.33-28.82,38.54-53.04,67.68-66.88ZM98.23,83.01c15.26-13.58,42.51-6.87,49.95,12.1,5.49,10.71-6.57,19.05-11.2,27.64-2.42-2.1-.94-5.75-1.74-8.48-1.93-9.83-7.21-19.72-16.24-24.68-4.96-1.42-10-.24-14.48,2.04-3.71,3.84-7.1,7.96-9.89,12.53.43-.02,1.27-.06,1.7-.09,2.38-2,4.83-3.95,7.32-5.82,8.99-3.52,19.87,2.88,19.98,12.66-5.04-4.59-11.82-6.2-18.41-4.42-4.68,5.26-10.62,10.13-11.61,17.55l2.77-5.47,13.69-4.4c-4.53,5.82-15.17,12.08-14.08,21.24,2.62-2.88,5.43-7.08,9.91-6.18,4.42-.13,7.15,3.65,9.85,6.57-12.32.97-14.61,15.19-12.51,25.02-3.18.84-6.33,1.74-9.48,2.68-3.35.26-9.31,3.76-10.19-1.87-11.95-25.81-7.42-59.7,14.68-78.64Z"/>
  <path class="st33" d="M325.9,470.28c-3.59,12.7-9.64,24.4-15.87,35.99,3.83-.82,7.63-1.73,11.4-2.72,1.36-11.11,5.43-21.9,4.47-33.27Z"/>
  <path class="st33" d="M188.81,472.64c.41,10.84,2.7,21.44,5.54,31.87,3.64.9,7.31,1.73,11.01,2.47-3.38-6.35-6.7-12.74-9.74-19.26-2.51-4.91-3.56-10.58-6.8-15.08Z"/>
  <path class="st9" d="M93.75,163.52c-.51-9.87-7.57-18.09-8.28-28.02-2.04-10.69.9-21.11,4.38-31.14,1.59-.06,3.18-.13,4.79-.19,2.79-4.57,6.18-8.69,9.89-12.53,4.48-2.27,9.53-3.45,14.48-2.04,9.03,4.96,14.31,14.85,16.24,24.68.79,2.73-.69,6.37,1.74,8.48,4.63-8.58,16.69-16.93,11.2-27.64-7.45-18.97-34.7-25.68-49.95-12.1-22.1,18.95-26.63,52.83-14.68,78.64.88,5.62,6.85,2.12,10.19,1.87Z"/>
  <path class="st2" d="M376.62,122.28c.02-9.51,3.6-18.84,9.36-26.33,3.48-3.91,8.3-7.79,13.9-6.87,7.66-.04,12.92,6.82,16.61,12.75.71.49,2.15,1.44,2.85,1.91,2.85,2,6.61,3.82,7.15,7.68,3.6,17.49.21,36.44-9.57,51.39,3.28,1.42,6.78,2.17,10.34,2.49,8.58-18.69,10.62-40.86,2.4-60.04-5.17-12.04-13.82-23.86-26.67-28.28-17.25-5.15-40.3,7.21-40.36,26.35,3.67,6.87,8.05,13.82,13.99,18.95Z"/>
  <path class="st30" d="M288.28,88.5c6.37-4.29,14.4-3.37,21.67-3.3-13.56-2.3-28.86-.56-39.7,8.6-8.65,6.05-12.62,16.99-11.93,27.29,9.98-10.86,16.82-24.98,29.95-32.59Z"/>
  <path class="st43" d="M145.27,153.6c-.17-2.36-.45-4.72-.09-7.06.24-1.57.51-3.13.86-4.68-.09-.34-.28-1.01-.36-1.35,6.74-3.82,11.67-9.96,18.09-14.27-1.22.02-3.65.02-4.85.02,4.36-3.58,9.89-5.06,15.49-4.63,9.31-.32,16.16,7.08,22.25,13.11,5.21,4.96,5.79,12.51,9.38,18.43,24.05,5.94,49.12,3.56,73.66,3.56,10.71-1.82,23,.19,32.16-6.74,5.04-10.84,12.62-23.11,25.53-24.89,10.51-1.91,19.33,5.86,24.74,13.97,2.51,2.25,5.13,4.4,7.75,6.54-.71-.02-2.12-.09-2.83-.11-.09,2.68-.19,5.36-.28,8.07,7.42.97,14.85,2.19,22.32,2.94-.92-3.71-2.49-7.23-4.79-10.3-17.64-27.21-43.02-50.96-74.35-61.03-7.27-.06-15.3-.99-21.67,3.3-13.13,7.62-19.98,21.74-29.95,32.59l-.75,2.47c-.15.88-.41,2.66-.54,3.54-4.85-9.44-11.35-17.9-18.54-25.66-5.49-5.92-13.26-9.44-17.62-16.46-10.34-1.03-20.88-.02-30.3,4.59-29.14,13.84-53.34,38.07-67.68,66.88,7.53-.24,14.91-1.8,22.36-2.85Z"/>
  <path class="st23" d="M238.5,101.44c7.19,7.77,13.69,16.22,18.54,25.66.13-.88.39-2.66.54-3.54-2.06-7.25-3.73-14.74-7.36-21.39-6.61-9.59-17.49-16.8-29.33-17.19,4.36,7.02,12.12,10.54,17.62,16.46Z"/>
  <path class="st27" d="M399.95,97.79c-6.72.88-10.11,7.64-12.02,13.39,6.37-5.32,15.58-7.62,22.9-2.62,1.33-.97,4.01-2.9,5.34-3.86-3.95-4.66-9.78-8.78-16.22-6.91Z"/>
  <path class="st6" d="M85.47,135.49c.71,9.93,7.77,18.15,8.28,28.02,3.15-.94,6.31-1.85,9.48-2.68-2.1-9.83.19-24.05,12.51-25.02-2.7-2.92-5.43-6.69-9.85-6.57-4.48-.9-7.3,3.3-9.91,6.18-1.09-9.16,9.55-15.43,14.08-21.24l-13.69,4.4-2.77,5.47c.99-7.42,6.93-12.3,11.61-17.55-.36-2.77-.94-5.51-1.57-8.24-2.49,1.87-4.94,3.82-7.32,5.82-.43.02-1.27.06-1.7.09-1.61.06-3.2.13-4.79.19-3.48,10.02-6.42,20.45-4.38,31.14Z"/>
  <path class="st2" d="M123.62,110.92c-.11-9.78-10.99-16.18-19.98-12.66.62,2.73,1.2,5.47,1.57,8.24,6.59-1.78,13.37-.17,18.41,4.42Z"/>
  <path class="st17" d="M426.49,111.42c-.54-3.86-4.29-5.69-7.15-7.68-.79.24-2.38.73-3.18.97-1.33.97-4.01,2.9-5.34,3.86,3.28,4.83,8.09,9.25,7.36,15.66-2.12-6.72-9.57-11.63-16.31-7.72,2.53,1.78,5.56,2.62,8.24,4.14,3.91,3.95,6.01,9.38,7,14.76-3.13-2.73-5.97-7.4-10.79-6.48-2.62,1.03-5.06,2.42-7.53,3.73-.17.88-.49,2.68-.67,3.58,12.9.26,12.38,15.94,11.14,25.17,2.53.43,5.11.9,7.66,1.39,9.78-14.96,13.17-33.9,9.57-51.39Z"/>
  <path class="st29" d="M311.86,150c-9.16,6.93-21.46,4.91-32.16,6.74-24.55,0-49.61,2.38-73.66-3.56-3.58-5.92-4.16-13.48-9.38-18.43-6.09-6.03-12.94-13.43-22.25-13.11-5.6-.43-11.14,1.05-15.49,4.63,1.2,0,3.63,0,4.85-.02,16.35-6.16,32.12,8.18,36.03,23.28,1.48,2.68,3,5.34,4.57,7.98,4.21.34,8.37.75,12.55,1.29,17.92,3,36.05,1.33,54.09,1.87,12.51.11,24.8-2.9,37.29-3.13l.43-.94c.58-1.22,1.72-3.65,2.27-4.87l.86-1.72Z"/>
  <path class="st11" d="M168.08,133.46c12.62-.47,22.9,8.15,31.71,16.07-3.91-15.11-19.68-29.44-36.03-23.28-6.42,4.31-11.35,10.45-18.09,14.27.09.34.28,1.01.36,1.35,6.65-4.27,13.73-9.01,22.04-8.41Z"/>
  <path class="st42" d="M344.16,133.48c6.48-.32,12.47,2.53,17.98,5.6-5.41-8.11-14.23-15.88-24.74-13.97-12.92,1.78-20.49,14.05-25.53,24.89l-.86,1.72c8.35-9.63,19.85-18.24,33.15-18.24Z"/>
  <path class="st47" d="M168.08,133.46c-8.3-.6-15.39,4.14-22.04,8.41-.34,1.54-.62,3.11-.86,4.68,9.53-3.39,20.02-1.09,28.2,4.51,8.54,7.66,20.73,3.78,30.98,6.46-1.57-2.64-3.09-5.3-4.57-7.98-8.82-7.92-19.1-16.54-31.71-16.07Z"/>
  <path class="st18" d="M362.14,139.08c-5.51-3.07-11.5-5.92-17.98-5.6-13.3,0-24.81,8.6-33.15,18.24-.56,1.22-1.7,3.65-2.27,4.87,7.57-.41,15.17-.67,22.72-1.37,5.56-1.46,9.14-6.67,14.72-8.22,6.61-2.98,13.9-1.67,20.88-1.48.71.02,2.12.09,2.83.11-2.62-2.15-5.24-4.29-7.75-6.54Z"/>
  <path class="st45" d="M86.73,171.52c25.79-7.04,52.55-10.21,79.07-13.2-26.74,1.01-53.77,4.31-79.07,13.2Z"/>
  <path class="st39" d="M423.06,171.41c-24.42-9.03-50.68-11.97-76.54-13.13,25.6,3.41,51.58,6.05,76.54,13.13Z"/>
  <path class="st13" d="M216.91,158.8c.58.77,1.74,2.34,2.32,3.11,11.37,2.25,23.17.6,34.72,1.12,18.54,1.01,37.21,0,55.58-2.92l-1.22-2.57c-12.49.24-24.78,3.24-37.29,3.13-18.05-.54-36.18,1.14-54.09-1.87Z"/>
  <path class="st45" d="M114.71,185.4c-.54,2.62-1.05,5.26-1.57,7.92,2.36-1.18,4.7-2.36,7.06-3.56-.13,2.25-.6,4.55-.26,6.82,3,2.15,6.35,3.69,9.63,5.36,2.06,5.13,3.24,10.6,3.26,16.16,15-18.24,31.48-35.43,50.28-49.82-27.08-3.58-58.19-.32-79.33,18.65,3.76,2.3,7.45-.11,10.92-1.52Z"/>
  <path class="st39" d="M322.42,174.98c-2.02.73-4.01,1.5-6.01,2.27,1.14.75,3.41,2.25,4.55,3,.82,2.83,1.63,5.66,2.47,8.52,2.51-.34,5.02-.69,7.57-1.03-1.37,1.97-2.75,3.95-4.08,5.92.06,1.89.21,5.64.28,7.53,10.71-11.8,22.25-22.75,33.86-33.62-16.14-1.42-32.74-1.5-48.32,3.56,1.5,4.14,6.35,2.88,9.68,3.84Z"/>
  <path class="st14" d="M294.85,191.35c1.16-.04,3.5-.13,4.66-.19,2.42,4.87,4.01,10.6,8.6,13.93,3.37,2.55,6.18,5.71,8.73,9.06,3.45-4.29,7.3-8.35,10.36-12.94-.06-1.89-.21-5.64-.28-7.53,1.33-1.97,2.7-3.95,4.08-5.92-2.55.34-5.06.69-7.57,1.03-.84-2.85-1.65-5.69-2.47-8.52-1.14-.75-3.41-2.25-4.55-3,2-.77,3.99-1.54,6.01-2.27-3.33-.97-8.18.3-9.68-3.84-15.39,4.76-25.99,21.56-21.8,37.49.64-.6,1.93-1.78,2.57-2.36-.67-5.02.09-10.04,1.33-14.91Z"/>
  <path class="st26" d="M97.85,204.95c4.12,3.07,9.25,5.41,11.78,10.13,2.98,6.37,9.29,10,13.5,15.45,3.22-4.16,6.82-8.03,9.72-12.42-.02-5.56-1.2-11.03-3.26-16.16-3.28-1.67-6.63-3.22-9.63-5.36-.34-2.27.13-4.57.26-6.82-2.36,1.2-4.7,2.38-7.06,3.56.51-2.66,1.03-5.3,1.57-7.92-3.48,1.42-7.17,3.82-10.92,1.52-4.87,6.01-8.97,12.7-10.81,20.3.71,1.33,2.17,3.97,2.88,5.3.62-2.53,1.31-5.06,2-7.57Z"/>
  <path class="st1" d="M341.03,300.63c.79-2.32,1.61-4.61,2.42-6.93l.94-2.75c-10.17-.36-20.34.34-30.51-.02,8.84-5.06,20.84.34,30.11-3.95-20.56-10.19-31.56-31.33-45.4-48.49-8.69-12.04-17.98-23.9-23.8-37.66-1.85-3.71-3-8.24-6.91-10.34-7.98-4.98-18-3.54-26.39-.45-6.63,7.85-9.46,18.02-15.54,26.24-13.63,19.25-27.25,38.6-42.77,56.39-4.91,6.05-11.74,10.02-17.04,15.58,11.39,1.05,23.32-1.09,34.35,2.49-11.14.77-22.32-.04-33.47.32,1.2,3.69,2.51,7.36,4.38,10.79,9.18-2.36,18.71-2.6,28.02-4.29.02.41.09,1.2.11,1.61-8.37.99-16.59,3.24-25.06,3.39.3,1.18.9,3.54,1.2,4.72,8.82,8.37,21.31,11.91,33.28,10.71,14.53-1.22,29.95-4.68,41.01-14.83,4.06-3.45,2.51-9.36,2.9-13.99-18.71-5.26-36.09-19.18-42.59-37.81,3.03-14.53,19.63-20.28,32.81-20.6,10,.69,20-.11,30,.21,10.54,1.55,21.22,6.87,26.99,16.16,2.1,8.63-4.08,16.01-9.38,22.02-8.33,8.5-17.85,16.93-29.57,20.11-.86,4.18-.45,8.43.06,12.66,12.08,10.86,28.5,14.53,44.22,16.05,12.55,1.05,25.96-3.6,33.52-14.08-9.74-2.04-19.68-3.13-29.23-5.99,10.54-.64,20.9,1.7,31.33,2.73Z"/>
  <path class="st27" d="M407.59,187.34c.28,3.05.17,6.12-.04,9.16.86-.04,2.57-.09,3.43-.13,5.26,20.34,6.5,43.28-3.99,62.21-4.55,8.97-12.87,15.28-21.95,19.16-10,4.94-21.78,4.23-32.08.62-18.02-7.15-28.67-24.16-40.02-38.82-2.77-4.08-7.1-7.81-6.93-13.11-.67-.02-1.97-.02-2.64-.02-4.51-6.03-8.11-12.79-9.85-20.15-.64.58-1.93,1.76-2.57,2.36,4.66,13.26,14.42,23.58,21.69,35.38,9.21,12.06,18.05,25.02,31.16,33.26,12.83,7.49,29.29,9.78,43.07,3.41,18.54-7.66,29.05-27.62,30.71-46.86.97-13.6.47-28.58-7.68-40.13-.79-2.12-1.57-4.23-2.3-6.35Z"/>
  <path class="st27" d="M214.13,210.85c-4.33,11.24-12.7,20.23-19.68,29.87-6.46,9.25-13.37,18.24-21.09,26.46-9.68,8.63-22.21,14.74-35.41,14.31-14.38-.86-28.6-9.21-35.28-22.14-7.72-13.56-10.17-30-7.15-45.28l.32-1.54c-.71-1.33-2.17-3.97-2.88-5.3-4.23,20.53-1.48,43.37,11.39,60.42,8.8,10.24,21.82,17.55,35.64,16.95,18.13,0,33.95-11.61,44.35-25.68,9.81-12.47,19.31-25.21,28.07-38.45,6.27-9.16,7.96-21.18,3.97-31.59-.13,7.34.64,15.02-2.27,21.97Z"/>
  <path class="st40" d="M308.11,205.08c-4.59-3.33-6.18-9.06-8.6-13.93-1.16.06-3.5.15-4.66.19-1.24,4.87-2,9.89-1.33,14.91,1.74,7.36,5.34,14.12,9.85,20.15.67,0,1.97,0,2.64.02,4.85-2.77,7.3-8.15,10.84-12.3-2.55-3.35-5.36-6.5-8.73-9.06Z"/>
  <path class="st32" d="M370.53,267.37c5.43.11,9.74,3.65,14.05,6.54-1.05.79-3.18,2.38-4.25,3.18,1.18.15,3.52.47,4.7.64,9.08-3.88,17.4-10.19,21.95-19.16,10.49-18.93,9.25-41.86,3.99-62.21-.86.04-2.57.09-3.43.13-2.79,2.12-3.09,5.86-4.44,8.84-6.59,18.35-17.34,34.83-28.97,50.34,3.48,4.53-1.09,8.24-3.6,11.69Z"/>
  <path class="st41" d="M109.63,215.08c-2.53-4.72-7.66-7.06-11.78-10.13-.69,2.51-1.37,5.04-2,7.57l-.32,1.54c2.4,6.65,2.73,13.73,2.38,20.73.73.09,2.23.26,2.96.34,1.37,1.33,2.73,2.68,4.08,4.01,1.74-.13,3.48-.26,5.21-.39-.26,3.43-.47,6.87-.62,10.3,4.74-6.03,9.06-12.36,13.58-18.54-4.21-5.45-10.51-9.08-13.5-15.45Z"/>
  <path class="st3" d="M104.95,239.16c-1.35-1.33-2.7-2.68-4.08-4.01-.73-.09-2.23-.26-2.96-.34.34-7,.02-14.08-2.38-20.73-3.03,15.28-.58,31.71,7.15,45.28,2.81-2.98,5.94-6.18,6.87-10.28.15-3.43.36-6.87.62-10.3-1.74.13-3.48.26-5.21.39Z"/>
  <path class="st38" d="M237.43,252.4c13.5,8.65,35.23,6.16,42.64-9.4,4.51.49,10.39-.71,12.98,4.08,2.75,3.97.21,8.2-2.38,11.35-.04.99-.13,2.96-.17,3.95,6.09-5.02,7.79-15.64-.34-19.66-11.44-4.18-23.02,2.21-34.1,4.74-11.59-1.78-22.87-8.82-34.91-4.96,3.6.09,7.21.24,10.84.34,1.29,3.41,1.78,7.75,5.45,9.55Z"/>
  <path class="st10" d="M257.23,272.44c.43,1.89,1.29,5.66,1.74,7.57,4.53-4.96,6.69-11.67,11.82-16.16,5.06-4.91,12.96-8.9,19.87-5.43,2.6-3.15,5.13-7.38,2.38-11.35-2.6-4.79-8.48-3.58-12.98-4.08-7.4,15.56-29.14,18.05-42.64,9.4-3.67-1.8-4.16-6.14-5.45-9.55-3.63-.11-7.23-.26-10.84-.34-8.93,3.2-6.67,14.4-1.14,19.76,1.29-1.8,2.55-3.6,3.84-5.41,8.35-.82,15.79,4.06,20.84,10.32,3.24,3.8,4.59,9.01,8.54,12.23,1.14-2.42.75-6.27,4.01-6.97Z"/>
  <path class="st34" d="M439.11,304.56c1.8-.49,5.39-1.5,7.19-2-.52-2.68-1.12-5.32-1.76-7.96-2.64-4.12-5.58-8.05-8.37-12.08,1.57.06,4.7.19,6.27.24-2.19-6.67-9.14-11.72-13.78-17.17,1.72-.15,5.13-.49,6.84-.67-4.03-3.33-6.69-10.73-12.04-11.12-3.54,4.53-5.24,10.64-8.71,15.45,2.88,5.88,6.03,11.72,10.41,16.67,5.24,5.77,8.5,13.02,13.95,18.63Z"/>
  <path class="st8" d="M75.23,303.89c5.86-11.48,16.09-20.21,20.19-32.72-3.3-4.81-6.24-9.87-8.75-15.17-3.24,2.73-6.44,5.62-8.6,9.29,2.23-.21,6.72-.67,8.95-.9-6.07,5.94-12.47,11.67-17.36,18.67,2.12-.26,6.37-.75,8.48-1.01-3.86,5-7.34,10.3-11.33,15.19.19,1.07.6,3.24.79,4.31,2.6.6,5.13,1.39,7.64,2.34Z"/>
  <path class="st44" d="M385.04,277.74c-1.18-.17-3.52-.49-4.7-.64,1.07-.79,3.2-2.38,4.25-3.18-4.31-2.9-8.63-6.44-14.05-6.54,2.51-3.45,7.08-7.17,3.6-11.69-6.54,8-13.11,16.14-21.18,22.68,10.3,3.6,22.08,4.31,32.08-.62Z"/>
  <path class="st27" d="M235.67,269.5c.13.88.39,2.62.52,3.5,2.21,1.35,4.46,2.66,6.76,3.88-.24-4.23-2.98-7.27-7.27-7.38Z"/>
  <path class="st27" d="M269.44,276.69c4.16-.73,6.8-3.52,7.06-7.77-3.52,1.35-6.93,3.6-7.06,7.77Z"/>
  <path class="st12" d="M365.14,345.99c18.32,5.28,37.29-1.74,55.85.32-1.01-1.2-3.03-3.6-4.03-4.81,6.82.88,11.89,6.33,18.67,7.32-3.3-4.1-6.78-8.03-9.96-12.19,2.88-.36,5.75-.84,8.6-1.44-.06-4.36-3.58-6.22-6.87-8.11,4.94.56,8.82,4.31,13.75,4.66-3.11-9.08-7.96-17.75-16.91-22.21.04-.41.13-1.22.17-1.63,5.41,2.1,10.81,4.21,16.35,6.01,1.44.24,4.33.73,5.77.97-2.12-3.69-4.53-7.23-7.45-10.32-5.45-5.6-8.71-12.85-13.95-18.63-4.38-4.96-7.53-10.79-10.41-16.67-12.25,18.43-36.26,27.4-57.7,22.44-2.83-.34-5.66-.62-8.5-.86-.73,3.6-1.48,7.23-2.21,10.84,27.74,3.73,55.06,11.74,79.95,24.63-5.86-.92-11.35-3.26-16.91-5.19-20-6.07-40.4-10.71-60.88-14.78-.36-.08-.68-.21-.99-.35-7.03-2.04-8.89,8.44-12.87,12.71,2.32-.11,4.63-.19,6.95-.28,7.51,9.4,13.86,20.26,23.54,27.57Z"/>
  <path class="st21" d="M104.5,318.98c4.85-1.67,9.63-3.69,14.7-4.63.6-.39,1.78-1.18,2.36-1.57,10.06-1.74,19.12-7.3,29.53-7.3,4.14-2.73,9.53-1.39,14.2-2.12-.3-5.02-1.91-9.81-3.07-14.66-22.64,10.09-52.44,3.11-66.8-17.53-4.1,12.51-14.33,21.24-20.19,32.72-2.04,2.19-3.99,4.48-5.82,6.87l-.24.94c.52.84,1.57,2.47,2.1,3.3,6.22-1.82,12.68-7.02,19.33-5.75-3.8,2.47-7.96,4.48-11.35,7.53-2.98,4.76-4.76,10.17-7.1,15.28,3.69-1.42,7.45-3.13,11.48-2.32,6.89-1.85,13.3-5.06,19.4-8.69l1.46-2.08Z"/>
  <path class="st5" d="M343.45,293.7c-.82,2.32-1.63,4.61-2.42,6.93-10.43-1.03-20.79-3.37-31.33-2.73,9.55,2.85,19.48,3.95,29.23,5.99,1.54-1.54,3.22-2.91,4.92-4.26-.18.01-.34.04-.54.03.02-1.5.11-4.46.15-5.97Z"/>
  <path class="st5" d="M409.39,321.12c5.56,1.93,11.05,4.27,16.91,5.19-24.89-12.9-52.21-20.9-79.95-24.63.73-3.6,1.48-7.23,2.21-10.84,2.83.24,5.66.52,8.5.86-3.15-1.16-6.52-2.83-9.89-1.37-1.04,2.95,1.04,8.76-3.13,9.29.39,2.5,1.1,5.26,3.5,6.37.32.09.65.2.99.35,20.47,4.08,40.88,8.71,60.88,14.78Z"/>
  <path class="st5" d="M343.84,299.63c.06,0,.13,0,.19-.01,0-.04-.01-.08-.02-.12-.06.04-.11.09-.17.14Z"/>
  <path class="st5" d="M347.52,305.99c.31.14.63.27.99.35-.34-.15-.67-.26-.99-.35Z"/>
  <path class="st48" d="M439.11,304.56c2.92,3.09,5.32,6.63,7.45,10.32-1.44-.24-4.33-.73-5.77-.97,8.56,4.48,17.36,8.58,26.16,12.64-5.47-11.65-11.91-24.12-22.4-31.95.64,2.64,1.24,5.28,1.76,7.96-1.8.49-5.39,1.5-7.19,2Z"/>
  <path class="st28" d="M75.23,303.89c-2.51-.94-5.04-1.74-7.64-2.34-.19-1.07-.6-3.24-.79-4.31-9.48,7.32-13.78,18.93-20.21,28.65,6.09-.97,10.84-5.32,16.52-7.45,3.11-.97,4.94-3.91,6.07-6.74l.24-.94c1.82-2.38,3.78-4.68,5.82-6.87Z"/>
  <path class="st31" d="M188.81,472.64c3.24,4.51,4.29,10.17,6.8,15.08,3.05,6.52,6.36,12.91,9.74,19.26,16.37,3.29,33.31,5.02,50.65,5.02,6.51,0,12.96-.25,19.35-.72,2.36-7.18,4.7-14.36,6.92-21.58,4.21-17.32,6.09-35.53,2.85-53.19-.58-2.53-1.16-5.45-3.78-6.65-11.24-7.08-24.31-10.36-36.69-14.83-2.79-.82-3.15-4.33-4.63-6.39-1.46-.69-2.88-1.44-4.27-2.19-2.96.84-6.09,2.49-9.14.99-10.17-3.54-19.46-9.72-30.45-10.6l3.09-3.22c-4.1-.47-8.15-1.24-12.06-2.58-.47-.15-1.46-.43-1.93-.58,9.93-4.91,22.59-12.51,20.86-25.41,5.84,4.42,11.93,8.73,18.95,11.09,12.98,3.39,26.35-.84,39.5.67,10.17,1.12,21.01,1.93,30.32-3.18-2.51-2.42-4.96-4.89-7.32-7.4-11.46-4.03-23.2-9.55-35.66-7.66-9.93.67-18.82,5.41-28.2,8.24,9.14-7.23,20.49-12.08,32.27-12.17,12.53-.56,24.08,5.32,34.33,11.93l1.16.15c2.9-6.85,6.8-13.5,7.77-20.94-.02-6.93-8.28-7.83-13.09-10.39,2.04-.92,4.08-1.82,6.14-2.73-10.54-3.56-20.73-8.09-31.07-12.15-1.18,8.43-2.6,16.82-4.29,25.17-4.36-6.76-3.18-16.31-4.72-24.18-12.68,2.57-24.38,9.03-36.8,12.75-2.92,1.37-5.64-.39-7.85-2.08-5.28-4.81-13.33-1.35-19.03-5.21-7.87-5.9-15-13.02-19.96-21.59-6.8.67-13.33,2.96-20.19,3.28-3.41,2-7.4,1.78-11.2,1.76l-.45,1.95c-11.54,1.29-22.55,5.62-33.69,8.69-6.09,3.63-12.51,6.85-19.4,8.69-1.29.71-3.86,2.15-5.15,2.85.34,5.56,6.59,3.45,10.06,3.78-3.09,4.59-8.48,7.72-10.09,13.2,6.42-2.75,12.6-5.99,18.58-9.55-1.7,3.93-4.72,7.04-7.6,10.13,7.94,3.35,15.81,7.06,24.38,8.56-1.82,2.17-3.63,4.33-5.43,6.5,8.82,1.67,17.7,3.39,26.74,3.11-.19,1.16-.6,3.48-.79,4.61,13.24,2.3,27.17,6.05,40.38,2.04.34.13,1.01.36,1.35.47-7.87,4.7-16.31,9.18-25.79,8.78-5.09,9.21-9.51,19.01-11.39,29.42,3.54-2.58,7.17-5.17,11.65-5.75-.39,3.6-.79,7.21-1.22,10.81,1.22-.34,3.67-1.05,4.89-1.39-1.89,17.1,2.36,34.12,7.42,50.32,2.04-9.36,2.47-19.35,7.3-27.87,2.1,22.85,10.02,45.23,22.98,64.15.8.21,1.61.39,2.42.59-2.83-10.43-5.12-21.03-5.54-31.87Z"/>
  <path class="st37" d="M299.25,345.78c-.97,7.45-4.87,14.1-7.77,20.94l-1.16-.15-2.75-.34c2.36,2.51,4.81,4.98,7.32,7.4,4.72-2.25,9.08-5.19,13.15-8.48-1.89,12.79,10.84,19.72,19.85,25.66-6.85.41-13.69-.34-20.53-.15-12.15,2.88-21.99,11.01-32.4,17.42-11.52,1.57-23.3.17-34.93.54,1.48,2.06,1.85,5.58,4.63,6.39,12.38,4.46,25.45,7.75,36.69,14.83,2.62,1.2,3.2,4.12,3.78,6.65,3.24,17.66,1.35,35.88-2.85,53.19-2.22,7.22-4.56,14.4-6.92,21.58,11.8-.88,23.38-2.58,34.68-5.01,6.23-11.59,12.28-23.3,15.87-35.99.96,11.38-3.11,22.16-4.47,33.27.63-.17,1.25-.34,1.88-.51,9.7-16.28,18.57-33.5,21.37-52.46.69-3.5,0-7.36,1.82-10.56,4.1,8.84,5.11,18.47,6.74,27.92,6.63-19.81,11.03-40.73,9.36-61.73,4.08,2.85,8.13,5.9,12.79,7.81-2.36-10.39-6.5-20.26-11.24-29.74-10.36.06-19.68-4.42-28.28-9.74,14.36,4.03,29.44,1.5,43.69-1.67v-4.63c8.8.45,17.57-.69,26.16-2.64-1.03-2.49-3-4.08-5.34-5.24,7.04-3.97,15.04-5.64,22.21-9.31,1.27-1.97.26-3.73-1.57-4.72-18.56-2.06-37.53,4.96-55.85-.32-9.68-7.32-16.03-18.17-23.54-27.57-2.32.09-4.63.17-6.95.28l-1.42.06c-3.86,3.84-7.87,7.57-12.55,10.41-6.2-.36-12.64-.24-17.6,3.99-3.22,3-7.36.34-10.79-.49-2.06.9-4.1,1.8-6.14,2.73,4.81,2.55,13.07,3.45,13.09,10.39Z"/>
  <path class="st4" d="M255.99,354.64c-11.78.09-23.13,4.94-32.27,12.17,9.38-2.83,18.26-7.57,28.2-8.24,12.47-1.89,24.2,3.63,35.66,7.66l2.75.34c-10.26-6.61-21.8-12.49-34.33-11.93Z"/>
  <path class="st16" d="M274.96,408.09c10.41-6.42,20.26-14.55,32.4-17.42,6.84-.19,13.69.56,20.53.15-9.01-5.94-21.74-12.87-19.85-25.66-4.08,3.28-8.43,6.22-13.15,8.48-9.31,5.11-20.15,4.29-30.32,3.18-13.15-1.5-26.52,2.73-39.5-.67-7.02-2.36-13.11-6.67-18.95-11.09,1.74,12.9-10.92,20.49-20.86,25.41.47.15,1.46.43,1.93.58,8.22.34,16.89-2.12,24.74,1.33,8.5,3.65,16.37,8.58,23.82,14.08,1.39.75,2.81,1.5,4.27,2.19,11.63-.36,23.41,1.03,34.93-.54Z"/>
  <path class="st49" d="M46.33,367.58c-3.59,6.69-6.86,13.64-9.47,20.81,1.95,3.22,3.98,6.4,6.07,9.53,8.17-8.99,16.14-18.19,24-27.38-6.95-.39-13.8-1.65-20.6-2.96Z"/>
  <path class="st25" d="M447.24,370.65c3.97,6.05,9.68,10.62,14.2,16.22,2.94,3.13,5.73,6.41,8.54,9.67,2.21-3.36,4.34-6.77,6.4-10.24-2.43-6.43-5.24-12.73-8.37-18.83-6.84,1.59-13.73,2.96-20.77,3.18Z"/>
  <path class="st22" d="M75.53,402.41c-2.83-8.45,7.57-13.88,8.75-21.74-3.13-.64-7.42-3.63-9.72.21-8.3,9.22-15.99,19.05-22.84,29.41,3.73,4.93,7.63,9.71,11.69,14.35,3.63-7.62,7.78-15.02,12.12-22.24Z"/>
  <path class="st46" d="M429.77,380.28c2.57,6.35,6.48,12.04,9.81,18.02-.24.94-.69,2.81-.9,3.76,3.63,7.03,7.73,13.86,11.39,20.88,3.94-4.58,7.73-9.29,11.34-14.15-7.23-10.94-15.5-21.19-24.75-30.4-1.74.47-5.17,1.42-6.89,1.89Z"/>
  <path class="st20" d="M97.11,456.72c3.95-14.07,10.17-27.64,17.3-40.18,1.57-2.68,3.95-4.68,6.14-6.82,1.57-1.48,2.68-3.35,3.88-5.11-15.41,2.73-25.26,15.79-35.1,26.67,1.97-15.3,10.13-28.52,16.26-42.34-11.76-4.72-23.5,4.4-30.06,13.45-4.34,7.22-8.48,14.62-12.12,22.24,10.24,11.68,21.52,22.42,33.7,32.08Z"/>
  <path class="st43" d="M416.72,455.25c12.07-9.75,23.24-20.56,33.35-32.3-3.67-7.02-7.76-13.85-11.39-20.88-3.71-5.84-10-9.42-15.71-13.02-4.1-2.88-9.25-1.42-13.78-.84-.77,2.23,1.14,4.06,1.89,6.01,6.18,11.78,12.45,23.95,13.93,37.34-9.61-11.16-19.96-24.05-35.25-26.89,2.79,4.21,4.89,8.82,5.66,13.86.06-2.92.24-5.82.47-8.71,9.1,13.86,16.47,29.29,20.83,45.44Z"/>
  <path class="st24" d="M187.2,391.03c3.91,1.33,7.96,2.1,12.06,2.58l-3.09,3.22c10.99.88,20.28,7.06,30.45,10.6,3.05,1.5,6.18-.15,9.14-.99-7.45-5.49-15.32-10.43-23.82-14.08-7.85-3.45-16.52-.99-24.74-1.33Z"/>
  <path class="st36" d="M114.41,416.55c-7.13,12.54-13.35,26.1-17.3,40.18,3.05,2.42,6.17,4.77,9.33,7.05,1.41-7.18,3.16-14.3,4.82-21.39,2.66-11.01,8.52-21.26,9.29-32.66-2.19,2.15-4.57,4.14-6.14,6.82Z"/>
  <path class="st36" d="M117.89,471.59c2.87,1.84,5.79,3.62,8.74,5.35,1.4-4.92,2.85-9.83,4.16-14.77-5.09,2.16-9.27,5.49-12.89,9.42Z"/>
  <path class="st19" d="M395.89,409.81c-.24,2.9-.41,5.79-.47,8.71,5.22,14.19,8.68,28.95,12.54,43.5,2.97-2.2,5.89-4.46,8.76-6.78-4.36-16.14-11.73-31.58-20.83-45.44Z"/>
  <path class="st7" d="M385.14,462.06c.08,4.66,1.21,9.11,2.49,13.54,2.62-1.57,5.21-3.19,7.76-4.86-3.03-3.26-6.4-6.21-10.25-8.68Z"/>
  <path class="st38" d="M148.55,485.27c-.34.88-.67,1.77-1.01,2.66.64.3,1.27.6,1.91.89-.19-1.21-.46-2.4-.9-3.55Z"/>
  <path class="st15" d="M364.67,485.42c-.02.81-.05,1.63-.07,2.45.63-.3,1.27-.59,1.9-.89-.47-.63-1.06-1.17-1.83-1.56Z"/>
  <path class="st35" d="M161.53,492.16c-.04.59-.09,1.19-.13,1.78,1.06.42,2.12.82,3.18,1.23-1.02-1-2.04-2.01-3.05-3.01Z"/>
</svg>